<svg width="489" height="489" viewBox="0 0 489 489" fill="none" xmlns="http://www.w3.org/2000/svg">
<circle cx="244.5" cy="244.5" r="244.5" fill="#232B2B"/>
<path d="M228.062 143H259.938C265.237 143 269.5 147.263 269.5 152.562V219.5H304.443C311.535 219.5 315.081 228.066 310.061 233.087L249.459 293.729C246.47 296.717 241.57 296.717 238.581 293.729L177.899 233.087C172.879 228.066 176.425 219.5 183.517 219.5H218.5V152.562C218.5 147.263 222.763 143 228.062 143ZM346 292.812V337.438C346 342.737 341.737 347 336.438 347H151.562C146.263 347 142 342.737 142 337.438V292.812C142 287.513 146.263 283.25 151.562 283.25H210.013L229.537 302.773C237.545 310.782 250.455 310.782 258.463 302.773L277.987 283.25H336.438C341.737 283.25 346 287.513 346 292.812ZM296.594 327.875C296.594 323.492 293.008 319.906 288.625 319.906C284.242 319.906 280.656 323.492 280.656 327.875C280.656 332.258 284.242 335.844 288.625 335.844C293.008 335.844 296.594 332.258 296.594 327.875ZM322.094 327.875C322.094 323.492 318.508 319.906 314.125 319.906C309.742 319.906 306.156 323.492 306.156 327.875C306.156 332.258 309.742 335.844 314.125 335.844C318.508 335.844 322.094 332.258 322.094 327.875Z" fill="#FCBA03"/>
</svg>
