<svg width="71" height="94" viewBox="0 0 71 94" fill="none" xmlns="http://www.w3.org/2000/svg">
<path d="M14.7793 86.5026C13.9979 89.646 15.9003 92.8278 19.0296 93.6118C19.5061 93.7327 19.9826 93.7858 20.4536 93.7858C23.0698 93.7858 25.4505 92.009 26.1169 89.3474L30.725 70.8518L21.0889 61.1836L14.7793 86.5026V86.5026ZM17.4978 50.5775L25.0124 21.4319C25.4122 19.8896 24.4391 18.3271 22.8361 17.9406C14.825 16.0135 6.7061 20.7011 4.70331 28.4129L0.0897709 46.3882C-0.310057 47.9306 0.66304 49.4931 2.266 49.8796L13.8701 52.6731C15.4749 53.0578 17.098 52.1199 17.4978 50.5775ZM67.186 29.3086H64.2649C62.6509 29.3086 61.3437 30.6202 61.3437 32.2395V35.1704H54.9994L46.4588 26.6013C44.4341 24.5661 41.7376 23.4469 38.8712 23.4469C33.9382 23.4469 29.6569 26.7991 28.4593 31.602L23.5445 51.3341C23.3001 52.3162 23.3132 53.3451 23.5825 54.3206C23.8519 55.2961 24.3684 56.185 25.0817 56.9009L40.8959 72.7679V87.9259C40.8959 91.1627 43.5122 93.7876 46.7382 93.7876C49.9642 93.7876 52.5804 91.1627 52.5804 87.9259V72.7679C52.5804 69.6373 51.3645 66.6936 49.1572 64.479L40.6093 55.9026C40.6367 55.811 40.6988 55.7395 40.7225 55.6443L44.3538 41.0687L48.4488 45.1774C49.5443 46.2765 51.0304 46.8957 52.5786 46.8957H61.3419V90.8586C61.3419 92.4779 62.6491 93.7895 64.263 93.7895H67.1841C68.7981 93.7895 70.1053 92.4779 70.1053 90.8586V32.2395C70.1071 30.6202 68.7999 29.3086 67.186 29.3086ZM43.8171 17.5852C48.657 17.5852 52.5804 13.6487 52.5804 8.79259C52.5804 3.93652 48.657 0 43.8171 0C38.9771 0 35.0537 3.93652 35.0537 8.79259C35.0537 13.6487 38.9771 17.5852 43.8171 17.5852Z" fill="#FCBA03"/>
</svg>
