<svg width="60" height="60" viewBox="0 0 60 60" fill="none" xmlns="http://www.w3.org/2000/svg">
<circle cx="30" cy="30" r="30" fill="#232B2B"/>
<path d="M11.3367 47.1881L11.2917 47.2192C10.7976 47.5603 10.3378 47.9506 9.919 48.3844C8.83974 49.5105 8.81165 51.2956 9.96683 52.3436C21.1911 62.5264 38.3161 62.5046 49.7425 52.5622C51.025 51.4462 50.8951 49.4699 49.5866 48.3844C49.1678 47.9506 48.708 47.5603 48.214 47.2192L48.1689 47.1881C46.7062 46.1782 44.9817 45.6385 43.217 45.6385H42.3298C40.7387 45.6385 39.2026 45.0426 38.0115 43.9632C36.6161 42.6986 35.8172 40.8829 35.8172 38.9757V38.3064C35.8172 36.9358 36.1551 35.5872 36.7997 34.3856L38.1249 31.9151C38.2707 31.6433 38.3918 31.3583 38.4865 31.0638L38.604 30.6989C38.7654 30.1973 39.0382 29.7408 39.4009 29.3651C40.019 28.725 40.3655 27.8615 40.3655 26.9618V26.6891C40.3655 26.0759 40.1898 25.4761 39.8602 24.9639C39.5305 24.4518 39.3548 23.852 39.3548 23.2388V18.1394C39.3548 16.6033 39.009 15.0879 38.3441 13.7107L37.6506 12.2741C37.4404 11.8389 37.1634 11.441 36.8299 11.0957C36.4939 10.7477 36.1051 10.4576 35.6785 10.2367L35.1195 9.94718C34.5756 9.66553 34.0029 9.4462 33.412 9.29318L33.3496 9.27703C32.639 9.09305 31.9089 9 31.176 9H28.3296C27.5967 9 26.8666 9.09305 26.156 9.27703L26.0936 9.29318C25.5027 9.4462 24.9301 9.66553 24.3862 9.94718L23.8271 10.2367C23.4005 10.4576 23.0117 10.7477 22.6757 11.0957C22.3423 11.441 22.0652 11.8389 21.8551 12.2741L21.1615 13.7107C20.4967 15.0879 20.1508 16.6033 20.1508 18.1394V23.2388C20.1508 23.852 19.9751 24.4518 19.6454 24.9639C19.3158 25.4761 19.1401 26.0759 19.1401 26.6891V26.9618C19.1401 27.8615 19.4867 28.725 20.1047 29.3651C20.4674 29.7408 20.7402 30.1973 20.9016 30.6989L21.0191 31.0638C21.1139 31.3583 21.2349 31.6433 21.3807 31.9151L22.7059 34.3856C23.3505 35.5872 23.6884 36.9358 23.6884 38.3064V38.9757C23.6884 40.8829 22.8895 42.6986 21.4941 43.9632C20.303 45.0426 18.7669 45.6385 17.1758 45.6385H16.2887C14.5239 45.6385 12.7995 46.1782 11.3367 47.1881Z" fill="#FCBA03"/>
</svg>
